<svg width="2000" height="2000" viewBox="0 0 2000 2000" fill="none" xmlns="http://www.w3.org/2000/svg">
<g clip-path="url(#clip0_70_43)">
<path d="M1526 687.083C1627.83 620.167 1695.25 504.833 1695.25 374.167C1695.25 167.833 1527.33 0 1321 0H679C472.667 0 304.75 167.833 304.75 374.167C304.75 504.833 372.167 620.167 474 687.083C372.167 754 304.75 869.333 304.75 1000C304.75 1130.67 372.167 1246 474 1312.92C372.167 1379.75 304.75 1495.08 304.75 1625.83C304.75 1832.17 473.5 2000 681 2000C890.667 2000 1061.33 1830.33 1061.33 1621.75V1276.67C1127.83 1337.25 1216.17 1374.17 1312.92 1374.17H1321C1527.33 1374.17 1695.25 1206.33 1695.25 1000C1695.25 869.333 1627.83 754 1526 687.083ZM1061.25 122.583H1321C1459.75 122.583 1572.67 235.417 1572.67 374.167C1572.67 512.917 1459.75 625.833 1321 625.833H1061.25V122.583ZM427.333 374.167C427.333 235.417 540.25 122.583 679 122.583H938.75V625.833H679C540.25 625.833 427.333 512.917 427.333 374.167ZM427.333 1000C427.333 861.25 540.25 748.417 679 748.417H938.75V1251.67H677.417C539.417 1250.75 427.333 1138.17 427.333 1000ZM938.75 1621.75C938.75 1762.75 823.083 1877.42 681 1877.42C541.167 1877.42 427.333 1764.58 427.333 1625.83C427.333 1487.08 540.25 1374.17 679 1374.17H938.75V1621.75ZM1321 1251.67H1312.92C1174.17 1251.67 1061.33 1138.75 1061.33 1000C1061.33 861.25 1174.17 748.417 1312.92 748.417H1321C1459.75 748.417 1572.67 861.25 1572.67 1000C1572.67 1138.75 1459.75 1251.67 1321 1251.67Z" fill="#2BDEFD"/>
</g>
<defs>
<clipPath id="clip0_70_43">
<rect width="2000" height="2000" fill="white"/>
</clipPath>
</defs>
</svg>
