<svg width="2000" height="2000" viewBox="0 0 2000 2000" fill="none" xmlns="http://www.w3.org/2000/svg">
<g clip-path="url(#clip0_70_71)">
<path d="M1039.92 1188.75V915.5H1960.67C1969.67 963.083 1974.33 1019.42 1974.33 1080.42C1974.33 1285.42 1918.33 1538.92 1737.67 1719.5C1562 1902.42 1337.58 2000 1040.25 2000C489.083 2000 25.6667 1551.08 25.6667 1000C25.6667 448.917 489.083 0 1040.25 0C1345.17 0 1562.33 119.667 1725.5 275.583L1532.67 468.333C1415.67 358.583 1257.08 273.25 1039.92 273.25C637.5 273.25 322.75 597.583 322.75 1000C322.75 1402.42 637.5 1726.75 1039.92 1726.75C1300.92 1726.75 1449.58 1621.92 1544.83 1526.67C1622.08 1449.42 1672.92 1339.08 1692.92 1188.42L1039.92 1188.75Z" fill="#81B5BF"/>
</g>
<defs>
<clipPath id="clip0_70_71">
<rect width="2000" height="2000" fill="white"/>
</clipPath>
</defs>
</svg>
