<svg width="2000" height="2000" viewBox="0 0 2000 2000" fill="none" xmlns="http://www.w3.org/2000/svg">
<g clip-path="url(#clip0_71_2)">
<path d="M1916.83 1798.67H1935.75L1899.5 1743.83C1921.67 1743.83 1933.42 1729.75 1933.58 1712.5C1933.58 1711.83 1933.58 1711.08 1933.5 1710.42C1933.5 1686.92 1919.33 1675.67 1890.25 1675.67H1843.25V1798.67H1860.92V1745.08H1882.67L1916.83 1798.67ZM1881.42 1731.17H1860.92V1689.58H1886.92C1900.33 1689.58 1915.67 1691.75 1915.67 1709.33C1915.67 1729.5 1900.25 1731.17 1881.42 1731.17Z" fill="#D6D7D8"/>
<path d="M1440.92 1589.42H1190.33V1197C1190.33 1103.42 1188.67 983 1060 983C929.5 983 909.5 1084.92 909.5 1190.25V1589.42H659V782.416H899.583V892.666H902.917C952 808.833 1043.17 758.75 1140.25 762.333C1394.25 762.333 1441 929.416 1441 1146.67L1440.92 1589.42ZM376.25 672.083C295.917 672.083 230.833 607 230.833 526.666C230.833 446.333 295.917 381.25 376.25 381.25C456.583 381.25 521.667 446.333 521.667 526.666C521.667 607 456.583 672.083 376.25 672.083ZM501.5 1589.42H250.667V782.416H501.5V1589.42ZM1565.83 148.583H124.75C56.6667 147.833 0.833333 202.416 0 270.5V1717.5C0.833333 1785.67 56.6667 1840.25 124.75 1839.5H1565.83C1634.08 1840.33 1690.17 1785.75 1691.08 1717.5V270.416C1690.08 202.166 1634 147.583 1565.83 148.5" fill="#D6D7D8"/>
<path d="M1883.58 1620.92C1819.92 1621.5 1768.75 1673.67 1769.42 1737.33C1770 1801 1822.17 1852.17 1885.83 1851.5C1949.5 1850.92 2000.67 1798.75 2000 1735.08C1999.42 1672.25 1948.58 1621.5 1885.83 1620.92H1883.58ZM1886.25 1838.25C1830.42 1839.17 1781.75 1794.75 1780.83 1738.92C1779.92 1683.08 1824.42 1637.08 1880.25 1636.17C1936.08 1635.25 1982.08 1679.75 1983 1735.58C1983 1736.17 1983 1736.67 1983 1737.25C1984.17 1791.83 1940.83 1837.08 1886.25 1838.25H1883.67Z" fill="#D6D7D8"/>
</g>
<defs>
<clipPath id="clip0_71_2">
<rect width="2000" height="2000" fill="white"/>
</clipPath>
</defs>
</svg>
