<svg width="2000" height="2000" viewBox="0 0 2000 2000" fill="none" xmlns="http://www.w3.org/2000/svg">
<g clip-path="url(#clip0_70_50)">
<path fill-rule="evenodd" clip-rule="evenodd" d="M1000 24.667C447.75 24.667 -3.05176e-05 472.334 -3.05176e-05 1024.67C-3.05176e-05 1466.5 286.5 1841.33 683.833 1973.58C733.833 1982.83 752.167 1951.92 752.167 1925.5C752.167 1901.67 751.25 1822.92 750.833 1739.33C472.667 1799.83 413.917 1621.33 413.917 1621.33C368.417 1505.75 302.917 1475 302.917 1475C212.167 1412.92 309.75 1414.25 309.75 1414.25C410.167 1421.33 463 1517.33 463 1517.33C552.167 1670.17 696.917 1626 754 1600.42C763 1535.75 788.917 1491.67 817.5 1466.67C595.417 1441.42 361.917 1355.67 361.917 972.5C361.917 863.334 401 774.084 465 704.084C454.583 678.834 420.333 577.167 474.667 439.417C474.667 439.417 558.667 412.584 749.75 541.917C829.5 519.75 915 508.667 1000 508.25C1085 508.667 1170.58 519.75 1250.5 541.917C1441.33 412.5 1525.25 439.417 1525.25 439.417C1579.67 577.167 1545.42 678.834 1535.08 704.084C1599.17 774.084 1638 863.334 1638 972.5C1638 1356.58 1404.08 1441.17 1181.42 1465.92C1217.25 1496.92 1249.25 1557.83 1249.25 1651.08C1249.25 1784.92 1248.08 1892.58 1248.08 1925.5C1248.08 1952.08 1266.08 1983.33 1316.75 1973.5C1713.92 1841.08 2000.08 1466.42 2000.08 1024.75C2000 472.417 1552.25 24.667 1000 24.667Z" fill="#D6D7D8"/>
<path d="M378.75 1460.5C376.583 1465.5 368.75 1467 361.583 1463.58C354.333 1460.33 350.25 1453.5 352.583 1448.58C354.75 1443.5 362.583 1442.08 369.833 1445.5C377.083 1448.67 381.25 1455.5 378.75 1460.5Z" fill="#D6D7D8"/>
<path d="M419.25 1505.67C414.5 1510.08 405.167 1508 398.833 1501.08C392.25 1494.08 391.083 1484.75 395.917 1480.33C400.833 1475.92 409.833 1478 416.417 1485C423 1491.92 424.25 1501.17 419.25 1505.67Z" fill="#D6D7D8"/>
<path d="M458.667 1563.25C452.5 1567.5 442.5 1563.5 436.333 1554.67C430.167 1545.75 430.167 1535.08 436.5 1530.83C442.667 1526.58 452.583 1530.42 458.833 1539.25C464.917 1548.25 464.917 1558.92 458.667 1563.25Z" fill="#D6D7D8"/>
<path d="M512.667 1618.92C507.167 1625 495.5 1623.33 487 1615.08C478.25 1607 475.833 1595.58 481.333 1589.5C486.917 1583.42 498.667 1585.17 507.25 1593.33C515.917 1601.42 518.5 1612.92 512.667 1618.92Z" fill="#D6D7D8"/>
<path d="M587.25 1651.17C584.833 1659 573.583 1662.58 562.25 1659.25C550.917 1655.83 543.5 1646.67 545.833 1638.75C548.167 1630.83 559.5 1627.17 570.917 1630.75C582.167 1634.08 589.583 1643.25 587.25 1651.17Z" fill="#D6D7D8"/>
<path d="M669.083 1657.17C669.333 1665.42 659.75 1672.25 647.833 1672.42C635.917 1672.67 626.167 1666 626.083 1657.92C626.083 1649.58 635.5 1642.83 647.417 1642.58C659.333 1642.33 669.083 1649 669.083 1657.17Z" fill="#D6D7D8"/>
<path d="M745.25 1644.25C746.667 1652.25 738.417 1660.58 726.583 1662.75C715 1664.92 704.25 1659.92 702.75 1651.92C701.333 1643.67 709.75 1635.42 721.333 1633.25C733.083 1631.17 743.75 1636 745.25 1644.25Z" fill="#D6D7D8"/>
</g>
<defs>
<clipPath id="clip0_70_50">
<rect width="2000" height="2000" fill="white"/>
</clipPath>
</defs>
</svg>
