<svg width="2000" height="2000" viewBox="0 0 2000 2000" fill="none" xmlns="http://www.w3.org/2000/svg">
<g clip-path="url(#clip0_70_30)">
<path d="M988.25 0.000108394C906.667 0.416775 828.75 7.33344 760.25 19.5001C558.333 55.1668 521.667 129.833 521.667 267.5V449.333H998.833V510H521.667H342.583C203.917 510 82.4999 593.333 44.4999 751.917C0.666604 933.667 -1.25006 1047.08 44.4999 1236.83C78.4166 1378.08 159.417 1478.75 298.083 1478.75H462.167V1260.75C462.167 1103.25 598.417 964.333 760.25 964.333H1236.83C1369.5 964.333 1475.42 855.083 1475.42 721.833V267.5C1475.42 138.167 1366.33 41.0834 1236.83 19.5001C1154.83 5.83344 1069.75 -0.333225 988.25 0.000108394ZM730.167 146.25C779.417 146.25 819.667 187.167 819.667 237.417C819.667 287.5 779.417 328.083 730.167 328.083C680.667 328.083 640.667 287.583 640.667 237.417C640.667 187.167 680.75 146.25 730.167 146.25Z" fill="#2BDEFD"/>
<path d="M1534.83 510V721.917C1534.83 886.167 1395.58 1024.42 1236.75 1024.42H760.25C629.667 1024.42 521.667 1136.17 521.667 1266.92V1721.25C521.667 1850.58 634.083 1926.58 760.25 1963.75C911.25 2008.17 1056.08 2016.17 1236.83 1963.75C1356.92 1929 1475.42 1859 1475.42 1721.25V1539.42H998.833V1478.83H1475.42H1714C1852.67 1478.83 1904.33 1382.08 1952.58 1236.92C2002.42 1087.42 2000.25 943.75 1952.58 752C1918.33 613.917 1852.83 510.083 1714 510.083L1534.83 510ZM1266.83 1660.58C1316.33 1660.58 1356.33 1701.08 1356.33 1751.25C1356.33 1801.58 1316.25 1842.42 1266.83 1842.42C1217.58 1842.42 1177.33 1801.5 1177.33 1751.25C1177.33 1701.08 1217.58 1660.58 1266.83 1660.58Z" fill="#2BDEFD"/>
</g>
<defs>
<clipPath id="clip0_70_30">
<rect width="2000" height="2000" fill="white"/>
</clipPath>
</defs>
</svg>
